<svg xmlns="http://www.w3.org/2000/svg" viewBox="0 0 85.95801 57.89258"><title>Asset 1</title><path d="M0,49.69238l3.6084-4.10009c3.11572,4.59179,7.29785,7.05224,12.38183,7.05224,7.05225,0,10.65967-4.18213,10.65967-12.62842V5.24805H5.6582V0h26.978V39.77c0,12.13623-5.74023,18.12256-16.728,18.12256A18.87136,18.87136,0,0,1,0,49.69238Z" fill="#999889"/><polygon points="80.407 18.519 85.958 18.519 70.239 57.567 69.017 57.567 56.304 25.95 43.459 57.567 42.265 57.567 26.593 18.519 32.202 18.519 42.917 45.321 53.704 18.519 58.966 18.519 69.802 45.321 80.407 18.519" fill="#818991"/></svg>