<svg xmlns="http://www.w3.org/2000/svg" viewBox="0 0 86.49902 25.26758"><title>Asset 2</title><path d="M33.61133,15.32227l-3.25,9.80566H28.42871l-2.42383-7.25586L23.54,25.12793H21.59277l-3.25-9.80566H20.2334l2.4375,7.45214,2.53515-7.45214H26.8877l2.47949,7.49414L31.874,15.32227Z" fill="#818991"/><path d="M35.00293,20.85547v-5.5332h1.82129v5.46289c0,2.01757.91113,2.88574,2.49316,2.88574,1.583,0,2.4795-.86817,2.4795-2.88574V15.32227h1.793v5.5332c0,2.85742-1.61132,4.41211-4.28613,4.41211C36.61426,25.26758,35.00293,23.71289,35.00293,20.85547Z" fill="#818991"/><path d="M45.92285,15.32227h1.82129v8.26464h5.127v1.541H45.92285Z" fill="#818991"/><path d="M54.09863,15.32227h1.82129v9.80566H54.09863Z" fill="#818991"/><path d="M65.05078,20.11328h1.72266v3.9082a6.20871,6.20871,0,0,1-3.83789,1.2461,5.04852,5.04852,0,1,1,.02734-10.085,5.06467,5.06467,0,0,1,3.93652,1.59668L65.751,17.89941a3.63956,3.63956,0,0,0-2.7041-1.12011,3.44736,3.44736,0,1,0-.01368,6.8916,3.963,3.963,0,0,0,2.01758-.50391Z" fill="#818991"/><path d="M76.30664,23.60059v1.52734H68.95215V15.32227h7.1582v1.52734H70.77344v2.54883h4.73437v1.499H70.77344v2.70313Z" fill="#818991"/><path d="M84.53809,25.12793l-2.00293-2.87207a3.2768,3.2768,0,0,1-.37891.01465H79.94336v2.85742H78.12207V15.32227h4.03418c2.57813,0,4.1748,1.3164,4.1748,3.48828a3.136,3.136,0,0,1-2.08691,3.0957L86.499,25.12793Zm-2.46582-8.26465H79.94336v3.9082h2.12891c1.59668,0,2.42382-.72851,2.42382-1.96093C84.49609,17.57715,83.669,16.86328,82.07227,16.86328Z" fill="#818991"/><path d="M0,12.18262l1.48047-1.78028a3.39809,3.39809,0,0,0,2.78125,1.60059c1.43945,0,2.17969-.86035,2.17969-2.581V2.18066H1.46094V0H9.042V9.28223c0,3.30078-1.63965,4.9209-4.7207,4.9209A5.281,5.281,0,0,1,0,12.18262Z" fill="#999889"/><path d="M21.46289,10.7627h-7.002l-1.37989,3.24023H10.40039L16.70117,0h2.56055L25.583,14.00293H22.8623Zm-.86035-2.041L17.96191,2.60059,15.34082,8.72168Z" fill="#999889"/><path d="M36.52246,14.00293,33.66211,9.90234a4.98858,4.98858,0,0,1-.54.01954H29.96094v4.081H27.36133V0h5.76074C36.80273,0,39.083,1.88086,39.083,4.98145a4.47691,4.47691,0,0,1-2.98047,4.42089l3.2207,4.60059ZM33.002,2.2002h-3.041v5.582h3.041c2.28028,0,3.46094-1.041,3.46094-2.80078C36.46289,3.2207,35.28223,2.2002,33.002,2.2002Z" fill="#999889"/><path d="M52.48242,11.82227v2.18066h-10.502V0H52.20215V2.18066H44.58008V5.82129H51.3418V7.96191H44.58008v3.86036Z" fill="#999889"/><path d="M55.38086,0H61.502c4.541,0,7.6416,2.80078,7.6416,7.002,0,4.2002-3.10058,7.001-7.6416,7.001H55.38086Zm6.001,11.80273c3.12011,0,5.14062-1.90039,5.14062-4.80078,0-2.90136-2.02051-4.80175-5.14062-4.80175H57.98047v9.60253Z" fill="#999889"/></svg>