<svg xmlns="http://www.w3.org/2000/svg" viewBox="0 0 375.41029 317.15087"><title>Asset 2</title><polygon points="375.41 0 350.529 0 337.158 42.977 337.153 42.977 323.899 85.953 290.035 195.76 264.812 115.721 254.848 115.721 239.587 115.721 230.097 115.721 204.99 195.76 157.388 42.977 132.47 42.977 190.749 229.301 218.885 229.301 247.178 139.945 275.181 229.301 303.357 229.301 348.333 85.953 361.817 42.977 361.807 42.977 375.41 0"/><path d="M121.50915,42.9599V226.065q0,28.74526-13.4389,44.423Q94.63135,286.16673,70.18,286.16673a61.06979,61.06979,0,0,1-26.78355-5.69287,45.16065,45.16065,0,0,1-18.75847-16.332L0,284.67352a74.73367,74.73367,0,0,0,29.11762,23.98471,90.32275,90.32275,0,0,0,39.19587,8.49264q27.0626,0,46.28956-10.73246a70.50882,70.50882,0,0,0,29.30428-31.07747q10.07917-20.34314,10.07917-49.08932V175.478Z"/></svg>