<svg xmlns="http://www.w3.org/2000/svg" viewBox="0 0 169.67578 14.72949"><title>Asset 3</title><path d="M6.89941,9.419a7.49812,7.49812,0,0,1-.2998,2.20019,4.55827,4.55827,0,0,1-.89551,1.66992,3.914,3.914,0,0,1-1.48437,1.06055,5.37409,5.37409,0,0,1-2.07032.37012,8.59788,8.59788,0,0,1-1.05957-.06543A9.36752,9.36752,0,0,1,0,14.44922q.0293-.3999.06934-.79981.03954-.3999.07031-.7998a.57224.57224,0,0,1,.1748-.35547.58811.58811,0,0,1,.415-.13476,1.89257,1.89257,0,0,1,.44531.07031,2.9182,2.9182,0,0,0,.69434.06933,2.86021,2.86021,0,0,0,1.01074-.165,1.69906,1.69906,0,0,0,.73438-.52441,2.40644,2.40644,0,0,0,.44531-.93555A5.60763,5.60763,0,0,0,4.21,9.47949V.09961H6.89941Z" fill="#fff"/><path d="M25.0498,14.55957H22.96973a.89092.89092,0,0,1-.57032-.1748,1.10153,1.10153,0,0,1-.33007-.43555L20.98926,10.999H15l-1.08008,2.9502a.95918.95918,0,0,1-.31054.41992.86236.86236,0,0,1-.56934.19043H10.93945l5.69043-14.46h2.73926Zm-4.75-5.46L18.54,4.28906q-.13037-.31933-.27051-.75976-.14062-.43945-.28027-.9502c-.08594.33985-.17676.6582-.26953.95508-.09375.29687-.1836.55469-.27051.77539l-1.75,4.79Z" fill="#fff"/><path d="M40.74023,14.55957H38.30957a1.06744,1.06744,0,0,1-1-.54l-3.04-4.62988a1.06138,1.06138,0,0,0-.375-.37012A1.31243,1.31243,0,0,0,33.29,8.90918H32.13965v5.65039H29.4502V.09961h4.40918A9.17658,9.17658,0,0,1,36.38477.4043a4.82444,4.82444,0,0,1,1.73046.85547,3.34235,3.34235,0,0,1,.99415,1.31445,4.31679,4.31679,0,0,1,.32031,1.68555,4.362,4.362,0,0,1-.21485,1.37988,3.98486,3.98486,0,0,1-.62011,1.17969,4.16714,4.16714,0,0,1-1,.92968,5.02188,5.02188,0,0,1-1.3545.62989,2.663,2.663,0,0,1,.4795.35547,2.54393,2.54393,0,0,1,.40039.48535ZM33.82031,6.97949a4.15,4.15,0,0,0,1.32422-.19043,2.568,2.568,0,0,0,.93067-.52441,2.11389,2.11389,0,0,0,.54492-.79492A2.74838,2.74838,0,0,0,36.7998,4.459a2.05226,2.05226,0,0,0-.7246-1.68945,3.46778,3.46778,0,0,0-2.21582-.58984H32.13965v4.7998Z" fill="#fff"/><path d="M47.90918,2.23926V6.249h5.06055V8.31934H47.90918v4.08984h6.4209v2.15039H45.21V.09961h9.12012V2.23926Z" fill="#fff"/><path d="M72.44922,7.3291A7.81374,7.81374,0,0,1,71.919,10.249a6.55966,6.55966,0,0,1-3.79981,3.78028,8.14511,8.14511,0,0,1-3,.53027H59.60938V.09961h5.50976a8.06556,8.06556,0,0,1,3,.53516A6.75764,6.75764,0,0,1,70.42871,2.124,6.64914,6.64914,0,0,1,71.919,4.40918,7.81739,7.81739,0,0,1,72.44922,7.3291Zm-2.75977,0A6.7336,6.7336,0,0,0,69.374,5.19434a4.42472,4.42472,0,0,0-.91015-1.59961,3.99008,3.99008,0,0,0-1.43946-1.00586,4.95841,4.95841,0,0,0-1.90527-.34961H62.30859V12.419h2.81055a4.94026,4.94026,0,0,0,1.90527-.34961,3.97591,3.97591,0,0,0,1.43946-1.00489A4.42092,4.42092,0,0,0,69.374,9.46387,6.7294,6.7294,0,0,0,69.68945,7.3291Z" fill="#fff"/><path d="M74.97266,13.2002a1.55326,1.55326,0,0,1,.11523-.59082,1.453,1.453,0,0,1,.31543-.4795,1.52828,1.52828,0,0,1,1.08008-.44043,1.4712,1.4712,0,0,1,.59473.12012,1.58081,1.58081,0,0,1,.47949.32031,1.50073,1.50073,0,0,1,0,2.13965,1.51607,1.51607,0,0,1-.47949.31543,1.537,1.537,0,0,1-.59473.11524,1.57375,1.57375,0,0,1-.60059-.11524,1.431,1.431,0,0,1-.79492-.79A1.53693,1.53693,0,0,1,74.97266,13.2002Z" fill="#fff"/><path d="M98.47754.16016,92.58691,14.55957h-2.04L88.76758,4.08984q-.03077-.18016-.05567-.38964c-.0166-.14063-.03125-.28711-.04492-.44043q-.07909.23-.15429.44043-.07618.20946-.15528.38964L84.00684,14.55957h-2.0293L79.61719.16016H81.3877a.7271.7271,0,0,1,.46972.14453.5675.5675,0,0,1,.21.38476l1.39942,9.43067c.0205.19922.03906.41308.05566.63965s.03125.46386.04492.71q.10988-.3794.23535-.71973.12452-.33984.24415-.62988L87.9668.68945A.97007.97007,0,0,1,88.27246.3252a.80363.80363,0,0,1,.50488-.165h.51954a.6949.6949,0,0,1,.46582.14941.73518.73518,0,0,1,.23437.37988l1.61035,9.43067c.03321.19336.06348.39941.08985.62011.02636.21973.04687.44922.05957.68946q.10986-.36036.21-.68946c.06738-.2207.13379-.42675.20019-.62011l3.71-9.43067a.7436.7436,0,0,1,.30567-.37011A.90989.90989,0,0,1,96.707.16016Z" fill="#fff"/><path d="M105.30664,12.75a3.26621,3.26621,0,0,0,1.375-.28516,3.428,3.428,0,0,0,1.10059-.7998,4.17586,4.17586,0,0,0,.77441-1.23047,6.01183,6.01183,0,0,0,.41016-1.57519L110.03711.16016h2.25l-1.06055,8.69922a7.61856,7.61856,0,0,1-.66992,2.335,6.453,6.453,0,0,1-1.30957,1.86035,5.87464,5.87464,0,0,1-1.86035,1.23047,5.94266,5.94266,0,0,1-2.31934.44433,5.1662,5.1662,0,0,1-2.21-.44433,4.14871,4.14871,0,0,1-1.55566-1.23047,4.71785,4.71785,0,0,1-.84961-1.86035,6.68611,6.68611,0,0,1-.085-2.335L101.417.16016h2.25l-1.05957,8.69922a5.11585,5.11585,0,0,0,.01953,1.57519,3.235,3.235,0,0,0,.47461,1.23047,2.37846,2.37846,0,0,0,.90039.7998A2.81481,2.81481,0,0,0,105.30664,12.75Z" fill="#fff"/><path d="M122.80664,12.66992l-.22949,1.88965H114.877L116.64648.16016h2.25l-1.54,12.50976Z" fill="#fff"/><path d="M128.00684,14.55957h-2.25977L127.50684.16016h2.25976Z" fill="#fff"/><path d="M139.97656,7.50977h4.30957l-.69922,5.66015a8.67432,8.67432,0,0,1-1.13086.67969,7.798,7.798,0,0,1-1.21972.48535,8.49874,8.49874,0,0,1-1.35449.29,11.67157,11.67157,0,0,1-1.53516.09473,5.83547,5.83547,0,0,1-2.38477-.47461,5.322,5.322,0,0,1-1.835-1.32032,5.9629,5.9629,0,0,1-1.17578-2.01464,7.58709,7.58709,0,0,1-.415-2.55078,9.41335,9.41335,0,0,1,.585-3.375,8.11991,8.11991,0,0,1,1.61036-2.64454A7.17594,7.17594,0,0,1,137.166.61523,7.57287,7.57287,0,0,1,140.22656,0a7.48986,7.48986,0,0,1,1.55957.14941,6.12851,6.12851,0,0,1,1.26563.41016,5.18974,5.18974,0,0,1,1.01465.61035,6.8643,6.8643,0,0,1,.82031.75l-.7207.93946a.70366.70366,0,0,1-.42969.31542.65168.65168,0,0,1-.50977-.11523c-.17383-.10644-.35156-.22461-.53515-.35449a4.116,4.116,0,0,0-.63965-.36524,4.27045,4.27045,0,0,0-.84571-.28027,5.15958,5.15958,0,0,0-1.13964-.10937,4.93743,4.93743,0,0,0-2.12012.44921,4.7577,4.7577,0,0,0-1.64941,1.28028,5.97337,5.97337,0,0,0-1.07032,2,8.37088,8.37088,0,0,0-.37988,2.60058,6.33093,6.33093,0,0,0,.27441,1.93457,4.15373,4.15373,0,0,0,.78516,1.4502,3.45245,3.45245,0,0,0,1.22559.915,3.86631,3.86631,0,0,0,1.59472.31933,6.12988,6.12988,0,0,0,1.62012-.18945,6.859,6.859,0,0,0,1.33008-.52051l.35937-2.96972h-1.79a.42663.42663,0,0,1-.32421-.12012.35584.35584,0,0,1-.09571-.29981Z" fill="#fff"/><path d="M151.18555,1.99023l-.54,4.42969h4.81054l-.23046,1.75977h-4.79981l-.55957,4.5498H155.916l-.23047,1.83008H147.376L149.14551.16016h8.30078l-.23047,1.83007Z" fill="#fff"/><path d="M165.0957.16016A7.35569,7.35569,0,0,1,167.16016.415a3.9906,3.9906,0,0,1,1.4248.71484,2.77812,2.77812,0,0,1,.8252,1.1045,3.7476,3.7476,0,0,1,.26562,1.43554,5.07869,5.07869,0,0,1-.24512,1.59473,4.4502,4.4502,0,0,1-1.83007,2.37988,5.29948,5.29948,0,0,1-1.49512.665,1.82568,1.82568,0,0,1,.62988.71l2.82031,5.54h-2.01074a.78245.78245,0,0,1-.7998-.46973l-2.38965-4.90039a.90823.90823,0,0,0-.30469-.35937,1.02763,1.02763,0,0,0-.53515-.11035h-1.16016l-.71973,5.83984h-2.24023L161.15527.16016Zm-.89062,6.92968a3.92287,3.92287,0,0,0,1.41992-.23535A2.77571,2.77571,0,0,0,166.63574,6.21a2.65134,2.65134,0,0,0,.59961-.96973,3.56651,3.56651,0,0,0,.2002-1.21,1.94559,1.94559,0,0,0-.62989-1.55566,2.85849,2.85849,0,0,0-1.91015-.54492h-1.71l-.62989,5.16015Z" fill="#fff"/></svg>